<?xml version="1.0" encoding="UTF-8" standalone="no"?>
<!DOCTYPE svg PUBLIC "-//W3C//DTD SVG 1.1//EN" "http://www.w3.org/Graphics/SVG/1.1/DTD/svg11.dtd">
<!-- Created with Vectornator (http://vectornator.io/) -->
<svg height="100%" stroke-miterlimit="10" style="fill-rule:nonzero;clip-rule:evenodd;stroke-linecap:round;stroke-linejoin:round;" version="1.1" viewBox="0 0 1024 1024" width="100%" xml:space="preserve" xmlns="http://www.w3.org/2000/svg" xmlns:xlink="http://www.w3.org/1999/xlink">
<defs/>
<g id="Icon">
<path d="M265.125 197.355C245.45 197.355 241.094 260.489 241.094 287.824C241.094 309.052 250.658 376.246 262.844 411.074C240.679 457.59 224.168 514.482 222.031 551.355C242.113 551.355 230.163 551.355 278.438 551.355C280.077 546.986 284.215 543.824 289.156 543.824C295.522 543.824 300.688 548.989 300.688 555.355C300.688 561.721 295.523 566.886 289.156 566.886C284.205 566.886 280.07 563.737 278.438 559.355C229.7 559.355 241.923 559.355 221.594 559.355C221.604 569.723 222.844 579.753 225.156 589.449L271.625 589.449L271.625 597.449L227.375 597.449C230.225 606.74 234.119 615.679 238.906 624.261L295.75 624.261C297.389 619.892 301.527 616.761 306.469 616.761C312.835 616.761 318 621.895 318 628.261C318 634.627 312.835 639.793 306.469 639.793C301.518 639.792 297.382 636.644 295.75 632.261L243.719 632.261C289.792 704.077 401.254 748.168 513 748.168C624.746 748.168 736.209 704.077 782.281 632.261L730.25 632.261C728.618 636.644 724.482 639.792 719.531 639.793C713.165 639.793 708 634.627 708 628.261C708 621.895 713.165 616.761 719.531 616.761C724.473 616.761 728.611 619.892 730.25 624.261L787.094 624.261C791.881 615.679 795.775 606.74 798.625 597.449L754.375 597.449L754.375 589.449L800.844 589.449C803.156 579.753 804.397 569.723 804.406 559.355C784.078 559.355 796.301 559.355 747.563 559.355C745.93 563.737 741.795 566.886 736.844 566.886C730.478 566.886 725.313 561.721 725.313 555.355C725.313 548.989 730.478 543.824 736.844 543.824C741.785 543.824 745.923 546.986 747.563 551.355C795.837 551.355 783.888 551.355 803.969 551.355C801.832 514.482 785.321 457.59 763.156 411.074C775.343 376.246 784.907 309.052 784.906 287.824C784.906 260.489 780.551 197.355 760.875 197.355C741.2 197.355 707.021 208.846 675.781 232.605C653.184 249.791 631.36 269.259 617.625 288.636C584.265 278.269 549.947 274.636 513 274.636C476.054 274.636 441.736 278.269 408.375 288.636C394.641 269.259 372.816 249.791 350.219 232.605C318.979 208.846 284.801 197.355 265.125 197.355ZM803.969 551.355C804.122 553.998 804.406 556.807 804.406 559.23C804.406 559.272 804.406 559.313 804.406 559.355C832.502 559.355 882.851 559.355 882.969 559.355C884.025 559.355 885.032 558.943 885.781 558.199L927.906 516.324C930.365 517.779 933.186 518.699 936.25 518.699C945.362 518.699 952.75 511.311 952.75 502.199C952.75 493.087 945.362 485.699 936.25 485.699C927.138 485.699 919.781 493.087 919.781 502.199C919.781 505.337 920.698 508.232 922.219 510.73L881.313 551.355C881.189 551.355 831.504 551.355 803.969 551.355ZM800.844 589.449C800.2 592.147 799.436 594.805 798.625 597.449L953.313 597.449C955.111 604.613 961.528 609.949 969.25 609.949C978.362 609.949 985.75 602.561 985.75 593.449C985.75 584.337 978.362 576.949 969.25 576.949C961.531 576.949 955.113 582.288 953.313 589.449L800.844 589.449ZM787.094 624.261C785.584 626.968 783.97 629.629 782.281 632.261L871.469 632.261L912.875 670.886C911.574 673.246 910.781 675.939 910.781 678.824C910.781 687.936 918.138 695.293 927.25 695.293C936.362 695.293 943.75 687.936 943.75 678.824C943.75 669.712 936.362 662.324 927.25 662.324C923.948 662.324 920.893 663.309 918.313 664.98L875.781 625.355C875.041 624.665 874.075 624.261 873.063 624.261L787.094 624.261ZM243.719 632.261C242.03 629.629 240.416 626.968 238.906 624.261L152.938 624.261C151.925 624.261 150.959 624.665 150.219 625.355L107.688 664.98C105.108 663.309 102.053 662.324 98.7502 662.324C89.6382 662.324 82.2503 669.712 82.2502 678.824C82.2502 687.936 89.6381 695.293 98.7502 695.293C107.862 695.293 115.219 687.936 115.219 678.824C115.219 675.939 114.426 673.246 113.125 670.886L154.531 632.261L243.719 632.261ZM227.375 597.449C226.564 594.805 225.8 592.147 225.156 589.449L72.6877 589.449C70.8868 582.288 64.4697 576.949 56.7502 576.949C47.6382 576.949 40.2502 584.337 40.2502 593.449C40.2502 602.561 47.638 609.949 56.7502 609.949C64.4721 609.949 70.8892 604.613 72.6877 597.449L227.375 597.449ZM221.594 559.355C221.594 559.313 221.594 559.272 221.594 559.23C221.594 556.807 221.878 553.998 222.031 551.355C194.496 551.355 144.811 551.355 144.688 551.355L103.781 510.73C105.303 508.232 106.219 505.337 106.219 502.199C106.219 493.087 98.8623 485.699 89.7502 485.699C80.6382 485.699 73.2501 493.087 73.2502 502.199C73.2502 511.311 80.6381 518.699 89.7502 518.699C92.8143 518.699 95.6353 517.779 98.0939 516.324L140.219 558.199C140.968 558.943 141.975 559.355 143.031 559.355C143.149 559.355 193.498 559.355 221.594 559.355ZM277.844 231.605C277.844 231.605 317.612 244.047 340.219 261.011C360.829 276.477 375.279 296.688 377.781 300.293C357.565 309.392 337.506 321.403 317.25 337.043C319.338 333.449 324.391 324.589 326.844 317.574C329.844 308.996 330.903 296.52 324.844 282.761C314.386 259.011 277.844 231.605 277.844 231.605ZM748.156 231.605C748.156 231.605 711.615 259.011 701.156 282.761C695.098 296.52 696.156 308.996 699.156 317.574C701.61 324.589 706.662 333.449 708.75 337.043C688.494 321.403 668.435 309.392 648.219 300.293C650.721 296.688 665.172 276.477 685.781 261.011C708.389 244.047 748.157 231.605 748.156 231.605ZM385.313 459.918C415.394 459.918 439.781 484.305 439.781 514.386C439.781 544.468 415.394 568.855 385.313 568.855C355.231 568.855 330.844 544.468 330.844 514.386C330.844 484.304 355.231 459.918 385.313 459.918ZM640.688 459.918C670.769 459.918 695.157 484.304 695.156 514.386C695.156 544.468 670.769 568.855 640.688 568.855C610.606 568.855 586.219 544.468 586.219 514.386C586.219 484.305 610.606 459.918 640.688 459.918ZM393.375 479.98L377.594 479.98L377.594 545.105L393.375 545.105M632.625 479.98L632.625 545.105L648.406 545.105L648.406 479.98L632.625 479.98ZM513 566.761C524.92 566.77 537.061 567.073 542.531 575.574C546.312 581.448 541.624 587.97 532.219 596.199C527.856 600.017 521.881 603.16 517.656 604.949C518.049 613.228 518.94 619.39 520.531 623.855C523.655 632.619 528.81 636.98 540.688 636.98C547.646 636.98 553.03 633.709 557.188 628.074C558.695 626.031 559.914 623.813 560.875 621.605C561.21 620.836 561.5 620.108 561.719 619.48C561.843 619.125 561.912 618.915 561.938 618.824C562.541 616.699 564.75 615.47 566.875 616.074C569 616.677 570.229 618.886 569.625 621.011C569.392 621.832 568.939 623.137 568.219 624.793C567.032 627.52 565.517 630.26 563.625 632.824C558.072 640.35 550.452 644.98 540.688 644.98C525.158 644.98 517.188 638.295 513 626.605C508.812 638.295 500.842 644.98 485.313 644.98C475.549 644.98 467.928 640.35 462.375 632.824C460.484 630.26 458.969 627.52 457.781 624.793C457.061 623.137 456.608 621.832 456.375 621.011C455.772 618.886 457 616.677 459.125 616.074C461.25 615.47 463.459 616.699 464.063 618.824C464.088 618.915 464.157 619.125 464.281 619.48C464.501 620.108 464.79 620.836 465.125 621.605C466.086 623.813 467.305 626.031 468.813 628.074C472.97 633.709 478.354 636.98 485.313 636.98C497.19 636.98 502.345 632.619 505.469 623.855C507.06 619.39 507.951 613.228 508.344 604.949C504.119 603.16 498.145 600.017 493.781 596.199C484.377 587.97 479.689 581.448 483.469 575.574C488.939 567.073 501.08 566.77 513 566.761ZM393.375 545.105L393.375 479.98" fill="#8a2be2" fill-rule="nonzero" opacity="1" stroke="none"/>
<path d="M222.031 551.344C221.878 553.987 221.594 559.219 221.594 559.219C221.594 559.219 221.594 559.302 221.594 559.344C241.923 559.344 229.7 559.344 278.438 559.344C280.07 563.726 284.205 566.875 289.156 566.875C295.522 566.875 300.687 561.71 300.688 555.344C300.687 548.978 295.522 543.813 289.156 543.812C284.215 543.812 280.077 546.975 278.438 551.344C230.163 551.344 242.112 551.344 222.031 551.344ZM225.156 589.438C225.8 592.136 226.564 594.794 227.375 597.438L271.625 597.438L271.625 589.438L225.156 589.438ZM238.906 624.25C240.416 626.957 242.03 629.617 243.719 632.25L295.75 632.25C297.382 636.632 301.518 639.781 306.469 639.781C312.835 639.781 318 634.616 318 628.25C318 621.884 312.835 616.75 306.469 616.75C301.527 616.75 297.389 619.881 295.75 624.25L238.906 624.25ZM782.281 632.25C783.97 629.617 785.584 626.957 787.094 624.25L730.25 624.25C728.611 619.881 724.473 616.75 719.531 616.75C713.165 616.75 708 621.884 708 628.25C708 634.616 713.165 639.781 719.531 639.781C724.482 639.781 728.618 636.632 730.25 632.25L782.281 632.25ZM798.625 597.438C799.436 594.794 800.2 592.136 800.844 589.438L754.375 589.438L754.375 597.438L798.625 597.438ZM804.406 559.344C804.406 559.302 804.406 559.261 804.406 559.219C804.406 556.796 804.122 553.987 803.969 551.344C783.888 551.344 795.837 551.344 747.562 551.344C745.923 546.975 741.785 543.812 736.844 543.812C730.478 543.812 725.312 548.978 725.312 555.344C725.312 561.71 730.478 566.875 736.844 566.875C741.795 566.875 745.93 563.726 747.562 559.344C796.3 559.344 784.077 559.344 804.406 559.344ZM277.844 231.594C277.844 231.594 314.385 259 324.844 282.75C330.902 296.509 329.844 308.985 326.844 317.562C324.39 324.577 319.338 333.438 317.25 337.031C337.506 321.392 357.565 309.38 377.781 300.281C375.279 296.676 360.828 276.465 340.219 261C317.612 244.036 277.844 231.594 277.844 231.594ZM748.156 231.594C748.157 231.594 708.388 244.036 685.781 261C665.172 276.466 650.721 296.676 648.219 300.281C668.435 309.381 688.494 321.392 708.75 337.031C706.662 333.438 701.61 324.577 699.156 317.562C696.156 308.985 695.098 296.509 701.156 282.75C711.615 259 748.156 231.594 748.156 231.594ZM385.312 459.906C355.231 459.906 330.844 484.293 330.844 514.375C330.844 544.457 355.231 568.844 385.312 568.844C415.394 568.844 439.781 544.457 439.781 514.375C439.781 484.293 415.394 459.906 385.312 459.906ZM377.594 479.969L393.375 479.969L393.375 545.094L377.594 545.094L377.594 479.969ZM640.688 459.906C610.606 459.906 586.219 484.293 586.219 514.375C586.219 544.457 610.606 568.844 640.688 568.844C670.769 568.844 695.156 544.457 695.156 514.375C695.157 484.293 670.769 459.906 640.688 459.906ZM632.625 479.969L648.406 479.969L648.406 545.094L632.625 545.094L632.625 479.969ZM513 566.75C501.08 566.758 488.939 567.062 483.469 575.562C479.689 581.437 484.377 587.959 493.781 596.188C498.145 600.005 504.119 603.149 508.344 604.938C507.951 613.216 507.06 619.378 505.469 623.844C502.345 632.608 497.19 636.969 485.312 636.969C478.354 636.969 472.97 633.698 468.812 628.062C467.305 626.02 466.086 623.802 465.125 621.594C464.79 620.824 464.501 620.097 464.281 619.469C464.157 619.113 464.088 618.903 464.062 618.812C463.459 616.687 461.25 615.459 459.125 616.062C457 616.666 455.771 618.875 456.375 621C456.608 621.821 457.061 623.126 457.781 624.781C458.968 627.509 460.484 630.249 462.375 632.812C467.928 640.339 475.548 644.969 485.312 644.969C500.842 644.969 508.812 638.284 513 626.594C517.188 638.284 525.158 644.969 540.688 644.969C550.452 644.969 558.072 640.339 563.625 632.812C565.516 630.249 567.032 627.509 568.219 624.781C568.939 623.126 569.392 621.821 569.625 621C570.229 618.875 569 616.666 566.875 616.062C564.75 615.459 562.541 616.687 561.938 618.812C561.912 618.903 561.843 619.113 561.719 619.469C561.499 620.097 561.21 620.824 560.875 621.594C559.914 623.802 558.695 626.02 557.188 628.062C553.03 633.697 547.646 636.969 540.688 636.969C528.81 636.969 523.655 632.608 520.531 623.844C518.94 619.378 518.049 613.216 517.656 604.938C521.881 603.149 527.855 600.005 532.219 596.188C541.624 587.959 546.311 581.437 542.531 575.562C537.061 567.062 524.92 566.758 513 566.75Z" fill="#e2be2b" fill-rule="nonzero" opacity="1" stroke="none"/>
</g>
</svg>
